<?xml version="1.0" encoding="UTF-8" standalone="no"?>
<svg
   viewBox="0 0 465 120"
   height="120"
   width="465"
   version="1.1"
   id="svg1"
   sodipodi:docname="명함로고.svg"
   inkscape:version="1.4.2 (ebf0e940, 2025-05-08)"
   xmlns:inkscape="http://www.inkscape.org/namespaces/inkscape"
   xmlns:sodipodi="http://sodipodi.sourceforge.net/DTD/sodipodi-0.dtd"
   xmlns="http://www.w3.org/2000/svg"
   xmlns:svg="http://www.w3.org/2000/svg">
  <defs
     id="defs1" />
  <sodipodi:namedview
     id="namedview1"
     pagecolor="#ffffff"
     bordercolor="#000000"
     borderopacity="0.25"
     inkscape:showpageshadow="2"
     inkscape:pageopacity="0.0"
     inkscape:pagecheckerboard="0"
     inkscape:deskcolor="#d1d1d1"
     inkscape:zoom="1.4857143"
     inkscape:cx="280"
     inkscape:cy="105"
     inkscape:window-width="2712"
     inkscape:window-height="1493"
     inkscape:window-x="0"
     inkscape:window-y="380"
     inkscape:window-maximized="0"
     inkscape:current-layer="svg1" />
  <g
     id="g6"
     transform="translate(-25.443819,-36.97411)">
    <g
       id="logo-group"
       transform="translate(-254.06061,-287.0303)">
      <g
         id="logo-center"
         transform="translate(239.72878)">
        <g
           id="title">
          <g
             aria-label="M"
             transform="matrix(1.75,0,0,1.75,-644.72877,428.73)"
             id="g1">
            <path
               d="m 116.38086,95.7229 -12.80273,22.0625 H 96.4209 L 83.69043,95.84546 v 32.23682 H 72.31348 V 71.91772 h 10.3252 l 17.39746,30.60254 17.39648,-30.60254 h 10.25391 v 56.16455 H 116.38087 V 95.7229 Z"
               transform="translate(324.67439,-125.55772)"
               stroke-width="0"
               stroke-linejoin="miter"
               stroke-miterlimit="2"
               fill="#1d4ed8"
               stroke="#1d4ed8"
               id="path1" />
          </g>
          <g
             aria-label="Y"
             transform="matrix(1.75,0,0,1.75,-634.22877,428.73)"
             id="g2">
            <path
               d="M 94.26416,103.44873 74.93115,71.91748 H 88.05713 L 99.9458,91.63281 111.77685,71.91748 h 13.29199 l -19.49902,31.53125 v 24.63379 H 94.26416 Z"
               transform="translate(377.85672,-125.55748)"
               stroke-width="0"
               stroke-linejoin="miter"
               stroke-miterlimit="2"
               fill="#1d4ed8"
               stroke="#1d4ed8"
               id="path2" />
          </g>
          <g
             aria-label="I"
             transform="matrix(1.75,0,0,1.75,-623.72877,428.73)"
             id="g3">
            <path
               d="m 94.34741,75.51758 11.30518,-3.6001 v 56.16504 H 94.34741 Z"
               transform="translate(409.31296,-125.55748)"
               stroke-width="0"
               stroke-linejoin="miter"
               stroke-miterlimit="2"
               fill="#1d4ed8"
               stroke="#1d4ed8"
               id="path3" />
          </g>
          <g
             aria-label="A"
             transform="matrix(1.75,0,0,1.75,-613.22877,428.73)"
             id="g4">
            <polygon
               points="114.22534,128.08252 126.19214,128.08252 104.82788,71.91748 95.08569,71.91748 73.80786,128.08252 85.77515,128.08252 99.93921,89.14844 "
               transform="translate(443.49202,-125.55748)"
               stroke-width="0"
               stroke-linejoin="miter"
               stroke-miterlimit="2"
               fill="#1d4ed8"
               stroke="#1d4ed8"
               id="polygon3" />
            <polygon
               points="100.03819,128.08252 91.09854,114.24284 108.90146,114.24284 "
               transform="translate(443.49202,-125.55748)"
               stroke-width="0"
               stroke-linejoin="miter"
               stroke-miterlimit="2"
               fill="#60a5fa"
               stroke="#60a5fa"
               id="polygon4" />
          </g>
          <g
             aria-label="M"
             transform="matrix(1.75,0,0,1.75,-602.72877,428.73)"
             id="g5">
            <path
               d="m 116.38086,95.7229 -12.80273,22.0625 H 96.4209 L 83.69043,95.84546 v 32.23682 H 72.31348 V 71.91772 h 10.3252 l 17.39746,30.60254 17.39648,-30.60254 h 10.25391 v 56.16455 H 116.38087 V 95.7229 Z"
               transform="translate(499.33065,-125.55772)"
               stroke-width="0"
               stroke-linejoin="miter"
               stroke-miterlimit="2"
               fill="#1d4ed8"
               stroke="#1d4ed8"
               id="path4" />
          </g>
        </g>
      </g>
    </g>
  </g>
</svg>
